<svg width="200" height="200" viewBox="0 0 200 200" xmlns="http://www.w3.org/2000/svg">
  <rect x="0" y="0" width="200" height="200" rx="40" fill="#F3D9CC"/>
  <path d="M100 35 C102 58, 110 66, 133 68 C110 70, 102 78, 100 101 C98 78, 90 70, 67 68 C90 66, 98 58, 100 35 Z" fill="#3D2418"/>
  <path d="M100 73 C101 90, 108 96, 125 98 C108 100, 101 106, 100 123 C99 106, 92 100, 75 98 C92 96, 99 90, 100 73 Z" fill="#8B4A2E"/>
  <path d="M100 101 C101 114, 106 119, 119 121 C106 123, 101 128, 100 141 C99 128, 94 123, 81 121 C94 119, 99 114, 100 101 Z" fill="#C97B5A"/>
</svg>